STARTFONT 2.1
COMMENT $Id: 7x13.bdf,v 1.52 2008-04-19 22:55:01+01 mgk25 Rel $
COMMENT Send bug reports to Markus Kuhn <http://www.cl.cam.ac.uk/~mgk25/>
FONT -Misc-Fixed-Medium-R-Normal--13-120-75-75-C-70-ISO10646-1
SIZE 13 78 78
FONTBOUNDINGBOX 7 13 0 -2
STARTPROPERTIES 11
FOUNDRY "Misc"
FAMILY_NAME "Fixed"
WEIGHT_NAME "Medium"
SLANT "R"
SETWIDTH_NAME "Normal"
SPACING "c"
CHARSET_REGISTRY "ISO-8859"
CHARSET_ENCODING "1"
COPYRIGHT "Public domain font.  Share and enjoy."
FONT_ASCENT  11
FONT_DESCENT 2
ENDPROPERTIES
CHARS 192
STARTCHAR char0
ENCODING 0
SWIDTH 538 0
DWIDTH 7 0
BBX 6 9 0 0
BITMAP
ac
00
84
00
84
00
84
00
d4
ENDCHAR
STARTCHAR space
ENCODING 32
SWIDTH 538 0
DWIDTH 7 0
BBX 0 0 0 0
BITMAP
ENDCHAR
STARTCHAR exclam
ENCODING 33
SWIDTH 538 0
DWIDTH 7 0
BBX 1 9 3 0
BITMAP
80
80
80
80
80
80
80
00
80
ENDCHAR
STARTCHAR quotedbl
ENCODING 34
SWIDTH 538 0
DWIDTH 7 0
BBX 3 3 2 6
BITMAP
a0
a0
a0
ENDCHAR
STARTCHAR numbersign
ENCODING 35
SWIDTH 538 0
DWIDTH 7 0
BBX 5 7 1 1
BITMAP
50
50
f8
50
f8
50
50
ENDCHAR
STARTCHAR dollar
ENCODING 36
SWIDTH 538 0
DWIDTH 7 0
BBX 5 7 1 1
BITMAP
20
78
a0
70
28
f0
20
ENDCHAR
STARTCHAR percent
ENCODING 37
SWIDTH 538 0
DWIDTH 7 0
BBX 6 9 0 0
BITMAP
44
a4
48
10
10
20
48
94
88
ENDCHAR
STARTCHAR ampersand
ENCODING 38
SWIDTH 538 0
DWIDTH 7 0
BBX 6 7 0 0
BITMAP
60
90
90
60
94
88
74
ENDCHAR
STARTCHAR quotesingle
ENCODING 39
SWIDTH 538 0
DWIDTH 7 0
BBX 1 3 3 6
BITMAP
80
80
80
ENDCHAR
STARTCHAR parenleft
ENCODING 40
SWIDTH 538 0
DWIDTH 7 0
BBX 3 9 2 0
BITMAP
20
40
40
80
80
80
40
40
20
ENDCHAR
STARTCHAR parenright
ENCODING 41
SWIDTH 538 0
DWIDTH 7 0
BBX 3 9 2 0
BITMAP
80
40
40
20
20
20
40
40
80
ENDCHAR
STARTCHAR asterisk
ENCODING 42
SWIDTH 538 0
DWIDTH 7 0
BBX 6 5 0 2
BITMAP
48
30
fc
30
48
ENDCHAR
STARTCHAR plus
ENCODING 43
SWIDTH 538 0
DWIDTH 7 0
BBX 5 5 1 2
BITMAP
20
20
f8
20
20
ENDCHAR
STARTCHAR comma
ENCODING 44
SWIDTH 538 0
DWIDTH 7 0
BBX 4 3 1 -1
BITMAP
70
60
80
ENDCHAR
STARTCHAR hyphen
ENCODING 45
SWIDTH 538 0
DWIDTH 7 0
BBX 5 1 1 4
BITMAP
f8
ENDCHAR
STARTCHAR period
ENCODING 46
SWIDTH 538 0
DWIDTH 7 0
BBX 3 3 2 -1
BITMAP
40
e0
40
ENDCHAR
STARTCHAR slash
ENCODING 47
SWIDTH 538 0
DWIDTH 7 0
BBX 5 9 1 0
BITMAP
08
08
10
10
20
40
40
80
80
ENDCHAR
STARTCHAR zero
ENCODING 48
SWIDTH 538 0
DWIDTH 7 0
BBX 6 9 0 0
BITMAP
30
48
84
84
84
84
84
48
30
ENDCHAR
STARTCHAR one
ENCODING 49
SWIDTH 538 0
DWIDTH 7 0
BBX 5 9 1 0
BITMAP
20
60
a0
20
20
20
20
20
f8
ENDCHAR
STARTCHAR two
ENCODING 50
SWIDTH 538 0
DWIDTH 7 0
BBX 6 9 0 0
BITMAP
78
84
84
04
08
30
40
80
fc
ENDCHAR
STARTCHAR three
ENCODING 51
SWIDTH 538 0
DWIDTH 7 0
BBX 6 9 0 0
BITMAP
fc
04
08
10
38
04
04
84
78
ENDCHAR
STARTCHAR four
ENCODING 52
SWIDTH 538 0
DWIDTH 7 0
BBX 6 9 0 0
BITMAP
08
18
28
48
88
88
fc
08
08
ENDCHAR
STARTCHAR five
ENCODING 53
SWIDTH 538 0
DWIDTH 7 0
BBX 6 9 0 0
BITMAP
fc
80
80
b8
c4
04
04
84
78
ENDCHAR
STARTCHAR six
ENCODING 54
SWIDTH 538 0
DWIDTH 7 0
BBX 6 9 0 0
BITMAP
38
40
80
80
b8
c4
84
84
78
ENDCHAR
STARTCHAR seven
ENCODING 55
SWIDTH 538 0
DWIDTH 7 0
BBX 6 9 0 0
BITMAP
fc
04
08
10
10
20
20
40
40
ENDCHAR
STARTCHAR eight
ENCODING 56
SWIDTH 538 0
DWIDTH 7 0
BBX 6 9 0 0
BITMAP
78
84
84
84
78
84
84
84
78
ENDCHAR
STARTCHAR nine
ENCODING 57
SWIDTH 538 0
DWIDTH 7 0
BBX 6 9 0 0
BITMAP
78
84
84
8c
74
04
04
08
70
ENDCHAR
STARTCHAR colon
ENCODING 58
SWIDTH 538 0
DWIDTH 7 0
BBX 3 7 2 1
BITMAP
40
e0
40
00
40
e0
40
ENDCHAR
STARTCHAR semicolon
ENCODING 59
SWIDTH 538 0
DWIDTH 7 0
BBX 4 8 1 0
BITMAP
20
70
20
00
00
70
60
80
ENDCHAR
STARTCHAR less
ENCODING 60
SWIDTH 538 0
DWIDTH 7 0
BBX 5 9 1 0
BITMAP
08
10
20
40
80
40
20
10
08
ENDCHAR
STARTCHAR equal
ENCODING 61
SWIDTH 538 0
DWIDTH 7 0
BBX 6 4 0 2
BITMAP
fc
00
00
fc
ENDCHAR
STARTCHAR greater
ENCODING 62
SWIDTH 538 0
DWIDTH 7 0
BBX 5 9 1 0
BITMAP
80
40
20
10
08
10
20
40
80
ENDCHAR
STARTCHAR question
ENCODING 63
SWIDTH 538 0
DWIDTH 7 0
BBX 6 9 0 0
BITMAP
78
84
84
04
08
10
10
00
10
ENDCHAR
STARTCHAR at
ENCODING 64
SWIDTH 538 0
DWIDTH 7 0
BBX 6 9 0 0
BITMAP
78
84
84
9c
a4
ac
94
80
78
ENDCHAR
STARTCHAR A
ENCODING 65
SWIDTH 538 0
DWIDTH 7 0
BBX 6 9 0 0
BITMAP
30
48
84
84
84
fc
84
84
84
ENDCHAR
STARTCHAR B
ENCODING 66
SWIDTH 538 0
DWIDTH 7 0
BBX 6 9 0 0
BITMAP
f8
44
44
44
78
44
44
44
f8
ENDCHAR
STARTCHAR C
ENCODING 67
SWIDTH 538 0
DWIDTH 7 0
BBX 6 9 0 0
BITMAP
78
84
80
80
80
80
80
84
78
ENDCHAR
STARTCHAR D
ENCODING 68
SWIDTH 538 0
DWIDTH 7 0
BBX 6 9 0 0
BITMAP
f8
44
44
44
44
44
44
44
f8
ENDCHAR
STARTCHAR E
ENCODING 69
SWIDTH 538 0
DWIDTH 7 0
BBX 6 9 0 0
BITMAP
fc
80
80
80
f0
80
80
80
fc
ENDCHAR
STARTCHAR F
ENCODING 70
SWIDTH 538 0
DWIDTH 7 0
BBX 6 9 0 0
BITMAP
fc
80
80
80
f0
80
80
80
80
ENDCHAR
STARTCHAR G
ENCODING 71
SWIDTH 538 0
DWIDTH 7 0
BBX 6 9 0 0
BITMAP
78
84
80
80
80
9c
84
8c
74
ENDCHAR
STARTCHAR H
ENCODING 72
SWIDTH 538 0
DWIDTH 7 0
BBX 6 9 0 0
BITMAP
84
84
84
84
fc
84
84
84
84
ENDCHAR
STARTCHAR I
ENCODING 73
SWIDTH 538 0
DWIDTH 7 0
BBX 5 9 1 0
BITMAP
f8
20
20
20
20
20
20
20
f8
ENDCHAR
STARTCHAR J
ENCODING 74
SWIDTH 538 0
DWIDTH 7 0
BBX 6 9 0 0
BITMAP
1c
08
08
08
08
08
08
88
70
ENDCHAR
STARTCHAR K
ENCODING 75
SWIDTH 538 0
DWIDTH 7 0
BBX 6 9 0 0
BITMAP
84
88
90
a0
c0
a0
90
88
84
ENDCHAR
STARTCHAR L
ENCODING 76
SWIDTH 538 0
DWIDTH 7 0
BBX 6 9 0 0
BITMAP
80
80
80
80
80
80
80
80
fc
ENDCHAR
STARTCHAR M
ENCODING 77
SWIDTH 538 0
DWIDTH 7 0
BBX 6 9 0 0
BITMAP
84
cc
cc
b4
b4
84
84
84
84
ENDCHAR
STARTCHAR N
ENCODING 78
SWIDTH 538 0
DWIDTH 7 0
BBX 6 9 0 0
BITMAP
84
84
c4
a4
94
8c
84
84
84
ENDCHAR
STARTCHAR O
ENCODING 79
SWIDTH 538 0
DWIDTH 7 0
BBX 6 9 0 0
BITMAP
78
84
84
84
84
84
84
84
78
ENDCHAR
STARTCHAR P
ENCODING 80
SWIDTH 538 0
DWIDTH 7 0
BBX 6 9 0 0
BITMAP
f8
84
84
84
f8
80
80
80
80
ENDCHAR
STARTCHAR Q
ENCODING 81
SWIDTH 538 0
DWIDTH 7 0
BBX 6 10 0 -1
BITMAP
78
84
84
84
84
84
a4
94
78
04
ENDCHAR
STARTCHAR R
ENCODING 82
SWIDTH 538 0
DWIDTH 7 0
BBX 6 9 0 0
BITMAP
f8
84
84
84
f8
a0
90
88
84
ENDCHAR
STARTCHAR S
ENCODING 83
SWIDTH 538 0
DWIDTH 7 0
BBX 6 9 0 0
BITMAP
78
84
80
80
78
04
04
84
78
ENDCHAR
STARTCHAR T
ENCODING 84
SWIDTH 538 0
DWIDTH 7 0
BBX 5 9 1 0
BITMAP
f8
20
20
20
20
20
20
20
20
ENDCHAR
STARTCHAR U
ENCODING 85
SWIDTH 538 0
DWIDTH 7 0
BBX 6 9 0 0
BITMAP
84
84
84
84
84
84
84
84
78
ENDCHAR
STARTCHAR V
ENCODING 86
SWIDTH 538 0
DWIDTH 7 0
BBX 6 9 0 0
BITMAP
84
84
84
48
48
48
30
30
30
ENDCHAR
STARTCHAR W
ENCODING 87
SWIDTH 538 0
DWIDTH 7 0
BBX 6 9 0 0
BITMAP
84
84
84
84
b4
b4
cc
cc
84
ENDCHAR
STARTCHAR X
ENCODING 88
SWIDTH 538 0
DWIDTH 7 0
BBX 6 9 0 0
BITMAP
84
84
48
48
30
48
48
84
84
ENDCHAR
STARTCHAR Y
ENCODING 89
SWIDTH 538 0
DWIDTH 7 0
BBX 5 9 1 0
BITMAP
88
88
50
50
20
20
20
20
20
ENDCHAR
STARTCHAR Z
ENCODING 90
SWIDTH 538 0
DWIDTH 7 0
BBX 6 9 0 0
BITMAP
fc
04
08
10
30
20
40
80
fc
ENDCHAR
STARTCHAR bracketleft
ENCODING 91
SWIDTH 538 0
DWIDTH 7 0
BBX 4 11 1 -1
BITMAP
f0
80
80
80
80
80
80
80
80
80
f0
ENDCHAR
STARTCHAR backslash
ENCODING 92
SWIDTH 538 0
DWIDTH 7 0
BBX 5 9 1 0
BITMAP
80
80
40
40
20
10
10
08
08
ENDCHAR
STARTCHAR bracketright
ENCODING 93
SWIDTH 538 0
DWIDTH 7 0
BBX 4 11 1 -1
BITMAP
f0
10
10
10
10
10
10
10
10
10
f0
ENDCHAR
STARTCHAR asciicircum
ENCODING 94
SWIDTH 538 0
DWIDTH 7 0
BBX 5 3 1 6
BITMAP
20
50
88
ENDCHAR
STARTCHAR underscore
ENCODING 95
SWIDTH 538 0
DWIDTH 7 0
BBX 6 1 0 -1
BITMAP
fc
ENDCHAR
STARTCHAR grave
ENCODING 96
SWIDTH 538 0
DWIDTH 7 0
BBX 2 2 2 8
BITMAP
80
40
ENDCHAR
STARTCHAR a
ENCODING 97
SWIDTH 538 0
DWIDTH 7 0
BBX 6 6 0 0
BITMAP
78
04
7c
84
8c
74
ENDCHAR
STARTCHAR b
ENCODING 98
SWIDTH 538 0
DWIDTH 7 0
BBX 6 9 0 0
BITMAP
80
80
80
b8
c4
84
84
c4
b8
ENDCHAR
STARTCHAR c
ENCODING 99
SWIDTH 538 0
DWIDTH 7 0
BBX 6 6 0 0
BITMAP
78
84
80
80
84
78
ENDCHAR
STARTCHAR d
ENCODING 100
SWIDTH 538 0
DWIDTH 7 0
BBX 6 9 0 0
BITMAP
04
04
04
74
8c
84
84
8c
74
ENDCHAR
STARTCHAR e
ENCODING 101
SWIDTH 538 0
DWIDTH 7 0
BBX 6 6 0 0
BITMAP
78
84
fc
80
84
78
ENDCHAR
STARTCHAR f
ENCODING 102
SWIDTH 538 0
DWIDTH 7 0
BBX 6 9 0 0
BITMAP
38
44
40
40
f0
40
40
40
40
ENDCHAR
STARTCHAR g
ENCODING 103
SWIDTH 538 0
DWIDTH 7 0
BBX 6 8 0 -2
BITMAP
74
88
88
70
80
78
84
78
ENDCHAR
STARTCHAR h
ENCODING 104
SWIDTH 538 0
DWIDTH 7 0
BBX 6 9 0 0
BITMAP
80
80
80
b8
c4
84
84
84
84
ENDCHAR
STARTCHAR i
ENCODING 105
SWIDTH 538 0
DWIDTH 7 0
BBX 5 8 1 0
BITMAP
20
00
60
20
20
20
20
f8
ENDCHAR
STARTCHAR j
ENCODING 106
SWIDTH 538 0
DWIDTH 7 0
BBX 5 10 1 -2
BITMAP
08
00
18
08
08
08
08
88
88
70
ENDCHAR
STARTCHAR k
ENCODING 107
SWIDTH 538 0
DWIDTH 7 0
BBX 6 9 0 0
BITMAP
80
80
80
88
90
e0
90
88
84
ENDCHAR
STARTCHAR l
ENCODING 108
SWIDTH 538 0
DWIDTH 7 0
BBX 5 9 1 0
BITMAP
60
20
20
20
20
20
20
20
f8
ENDCHAR
STARTCHAR m
ENCODING 109
SWIDTH 538 0
DWIDTH 7 0
BBX 5 6 1 0
BITMAP
d0
a8
a8
a8
a8
88
ENDCHAR
STARTCHAR n
ENCODING 110
SWIDTH 538 0
DWIDTH 7 0
BBX 6 6 0 0
BITMAP
b8
c4
84
84
84
84
ENDCHAR
STARTCHAR o
ENCODING 111
SWIDTH 538 0
DWIDTH 7 0
BBX 6 6 0 0
BITMAP
78
84
84
84
84
78
ENDCHAR
STARTCHAR p
ENCODING 112
SWIDTH 538 0
DWIDTH 7 0
BBX 6 8 0 -2
BITMAP
b8
c4
84
c4
b8
80
80
80
ENDCHAR
STARTCHAR q
ENCODING 113
SWIDTH 538 0
DWIDTH 7 0
BBX 6 8 0 -2
BITMAP
74
8c
84
8c
74
04
04
04
ENDCHAR
STARTCHAR r
ENCODING 114
SWIDTH 538 0
DWIDTH 7 0
BBX 6 6 0 0
BITMAP
b8
44
40
40
40
40
ENDCHAR
STARTCHAR s
ENCODING 115
SWIDTH 538 0
DWIDTH 7 0
BBX 6 6 0 0
BITMAP
78
84
60
18
84
78
ENDCHAR
STARTCHAR t
ENCODING 116
SWIDTH 538 0
DWIDTH 7 0
BBX 6 8 0 0
BITMAP
40
40
f0
40
40
40
44
38
ENDCHAR
STARTCHAR u
ENCODING 117
SWIDTH 538 0
DWIDTH 7 0
BBX 6 6 0 0
BITMAP
84
84
84
84
8c
74
ENDCHAR
STARTCHAR v
ENCODING 118
SWIDTH 538 0
DWIDTH 7 0
BBX 5 6 1 0
BITMAP
88
88
88
50
50
20
ENDCHAR
STARTCHAR w
ENCODING 119
SWIDTH 538 0
DWIDTH 7 0
BBX 5 6 1 0
BITMAP
88
88
a8
a8
a8
50
ENDCHAR
STARTCHAR x
ENCODING 120
SWIDTH 538 0
DWIDTH 7 0
BBX 6 6 0 0
BITMAP
84
48
30
30
48
84
ENDCHAR
STARTCHAR y
ENCODING 121
SWIDTH 538 0
DWIDTH 7 0
BBX 6 8 0 -2
BITMAP
84
84
84
8c
74
04
84
78
ENDCHAR
STARTCHAR z
ENCODING 122
SWIDTH 538 0
DWIDTH 7 0
BBX 6 6 0 0
BITMAP
fc
08
10
20
40
fc
ENDCHAR
STARTCHAR braceleft
ENCODING 123
SWIDTH 538 0
DWIDTH 7 0
BBX 5 11 1 -1
BITMAP
38
40
40
40
20
c0
20
40
40
40
38
ENDCHAR
STARTCHAR bar
ENCODING 124
SWIDTH 538 0
DWIDTH 7 0
BBX 1 9 3 0
BITMAP
80
80
80
80
80
80
80
80
80
ENDCHAR
STARTCHAR braceright
ENCODING 125
SWIDTH 538 0
DWIDTH 7 0
BBX 5 11 1 -1
BITMAP
e0
10
10
10
20
18
20
10
10
10
e0
ENDCHAR
STARTCHAR asciitilde
ENCODING 126
SWIDTH 538 0
DWIDTH 7 0
BBX 5 3 1 6
BITMAP
48
a8
90
ENDCHAR
STARTCHAR space
ENCODING 160
SWIDTH 538 0
DWIDTH 7 0
BBX 0 0 0 0
BITMAP
ENDCHAR
STARTCHAR exclamdown
ENCODING 161
SWIDTH 538 0
DWIDTH 7 0
BBX 1 9 3 0
BITMAP
80
00
80
80
80
80
80
80
80
ENDCHAR
STARTCHAR cent
ENCODING 162
SWIDTH 538 0
DWIDTH 7 0
BBX 5 8 1 1
BITMAP
20
70
a8
a0
a0
a8
70
20
ENDCHAR
STARTCHAR sterling
ENCODING 163
SWIDTH 538 0
DWIDTH 7 0
BBX 6 9 0 0
BITMAP
38
44
40
40
e0
40
40
44
b8
ENDCHAR
STARTCHAR currency
ENCODING 164
SWIDTH 538 0
DWIDTH 7 0
BBX 6 6 0 1
BITMAP
84
78
48
48
78
84
ENDCHAR
STARTCHAR yen
ENCODING 165
SWIDTH 538 0
DWIDTH 7 0
BBX 5 9 0 0
BITMAP
88
88
50
50
f8
20
f8
20
20
ENDCHAR
STARTCHAR brokenbar
ENCODING 166
SWIDTH 538 0
DWIDTH 7 0
BBX 1 9 3 0
BITMAP
80
80
80
80
00
80
80
80
80
ENDCHAR
STARTCHAR section
ENCODING 167
SWIDTH 538 0
DWIDTH 7 0
BBX 4 10 1 0
BITMAP
60
90
80
60
90
90
60
10
90
60
ENDCHAR
STARTCHAR dieresis
ENCODING 168
SWIDTH 538 0
DWIDTH 7 0
BBX 4 2 1 7
BITMAP
90
90
ENDCHAR
STARTCHAR copyright
ENCODING 169
SWIDTH 538 0
DWIDTH 7 0
BBX 6 9 0 0
BITMAP
78
84
b4
a4
a4
a4
b4
84
78
ENDCHAR
STARTCHAR ordfeminine
ENCODING 170
SWIDTH 538 0
DWIDTH 7 0
BBX 5 7 1 2
BITMAP
70
08
78
88
78
00
f8
ENDCHAR
STARTCHAR guillemotleft
ENCODING 171
SWIDTH 538 0
DWIDTH 7 0
BBX 6 7 0 1
BITMAP
14
28
50
a0
50
28
14
ENDCHAR
STARTCHAR logicalnot
ENCODING 172
SWIDTH 538 0
DWIDTH 7 0
BBX 5 3 1 2
BITMAP
f8
08
08
ENDCHAR
STARTCHAR hyphen
ENCODING 173
SWIDTH 538 0
DWIDTH 7 0
BBX 4 1 1 4
BITMAP
f0
ENDCHAR
STARTCHAR registered
ENCODING 174
SWIDTH 538 0
DWIDTH 7 0
BBX 6 9 0 0
BITMAP
78
84
b4
ac
ac
b4
ac
84
78
ENDCHAR
STARTCHAR macron
ENCODING 175
SWIDTH 538 0
DWIDTH 7 0
BBX 5 1 1 8
BITMAP
f8
ENDCHAR
STARTCHAR degree
ENCODING 176
SWIDTH 538 0
DWIDTH 7 0
BBX 4 4 1 5
BITMAP
60
90
90
60
ENDCHAR
STARTCHAR plusminus
ENCODING 177
SWIDTH 538 0
DWIDTH 7 0
BBX 5 7 1 1
BITMAP
20
20
f8
20
20
00
f8
ENDCHAR
STARTCHAR twosuperior
ENCODING 178
SWIDTH 538 0
DWIDTH 7 0
BBX 3 6 1 4
BITMAP
40
a0
20
40
80
e0
ENDCHAR
STARTCHAR threesuperior
ENCODING 179
SWIDTH 538 0
DWIDTH 7 0
BBX 3 6 1 4
BITMAP
e0
20
40
20
a0
40
ENDCHAR
STARTCHAR acute
ENCODING 180
SWIDTH 538 0
DWIDTH 7 0
BBX 2 2 2 8
BITMAP
40
80
ENDCHAR
STARTCHAR mu
ENCODING 181
SWIDTH 538 0
DWIDTH 7 0
BBX 6 7 0 -1
BITMAP
84
84
84
84
cc
b4
80
ENDCHAR
STARTCHAR paragraph
ENCODING 182
SWIDTH 538 0
DWIDTH 7 0
BBX 6 9 0 0
BITMAP
7c
e8
e8
e8
68
28
28
28
28
ENDCHAR
STARTCHAR periodcentered
ENCODING 183
SWIDTH 538 0
DWIDTH 7 0
BBX 2 1 2 4
BITMAP
c0
ENDCHAR
STARTCHAR cedilla
ENCODING 184
SWIDTH 538 0
DWIDTH 7 0
BBX 2 2 2 -2
BITMAP
40
80
ENDCHAR
STARTCHAR onesuperior
ENCODING 185
SWIDTH 538 0
DWIDTH 7 0
BBX 3 6 1 4
BITMAP
40
c0
40
40
40
e0
ENDCHAR
STARTCHAR ordmasculine
ENCODING 186
SWIDTH 538 0
DWIDTH 7 0
BBX 4 6 1 3
BITMAP
60
90
90
60
00
f0
ENDCHAR
STARTCHAR guillemotright
ENCODING 187
SWIDTH 538 0
DWIDTH 7 0
BBX 6 7 0 1
BITMAP
a0
50
28
14
28
50
a0
ENDCHAR
STARTCHAR onequarter
ENCODING 188
SWIDTH 538 0
DWIDTH 7 0
BBX 6 10 0 0
BITMAP
40
c0
40
40
44
ec
14
14
1c
04
ENDCHAR
STARTCHAR onehalf
ENCODING 189
SWIDTH 538 0
DWIDTH 7 0
BBX 6 10 0 0
BITMAP
40
c0
40
40
48
f4
04
08
10
1c
ENDCHAR
STARTCHAR threequarters
ENCODING 190
SWIDTH 538 0
DWIDTH 7 0
BBX 6 10 0 0
BITMAP
e0
20
40
20
a4
4c
14
14
1c
04
ENDCHAR
STARTCHAR questiondown
ENCODING 191
SWIDTH 538 0
DWIDTH 7 0
BBX 6 9 0 0
BITMAP
20
00
20
20
40
80
84
84
78
ENDCHAR
STARTCHAR Agrave
ENCODING 192
SWIDTH 538 0
DWIDTH 7 0
BBX 6 10 0 0
BITMAP
20
10
00
30
48
84
84
fc
84
84
ENDCHAR
STARTCHAR Aacute
ENCODING 193
SWIDTH 538 0
DWIDTH 7 0
BBX 6 10 0 0
BITMAP
10
20
00
30
48
84
84
fc
84
84
ENDCHAR
STARTCHAR Acircumflex
ENCODING 194
SWIDTH 538 0
DWIDTH 7 0
BBX 6 10 0 0
BITMAP
30
48
00
30
48
84
84
fc
84
84
ENDCHAR
STARTCHAR Atilde
ENCODING 195
SWIDTH 538 0
DWIDTH 7 0
BBX 6 10 0 0
BITMAP
64
98
00
30
48
84
84
fc
84
84
ENDCHAR
STARTCHAR Adieresis
ENCODING 196
SWIDTH 538 0
DWIDTH 7 0
BBX 6 10 0 0
BITMAP
48
48
00
30
48
84
84
fc
84
84
ENDCHAR
STARTCHAR Aring
ENCODING 197
SWIDTH 538 0
DWIDTH 7 0
BBX 6 10 0 0
BITMAP
30
48
30
30
48
84
84
fc
84
84
ENDCHAR
STARTCHAR AE
ENCODING 198
SWIDTH 538 0
DWIDTH 7 0
BBX 6 9 0 0
BITMAP
5c
a0
a0
a0
b8
e0
a0
a0
bc
ENDCHAR
STARTCHAR Ccedilla
ENCODING 199
SWIDTH 538 0
DWIDTH 7 0
BBX 6 11 0 -2
BITMAP
78
84
80
80
80
80
80
84
78
10
20
ENDCHAR
STARTCHAR Egrave
ENCODING 200
SWIDTH 538 0
DWIDTH 7 0
BBX 6 10 0 0
BITMAP
20
10
00
fc
80
80
f0
80
80
fc
ENDCHAR
STARTCHAR Eacute
ENCODING 201
SWIDTH 538 0
DWIDTH 7 0
BBX 6 10 0 0
BITMAP
10
20
00
fc
80
80
f0
80
80
fc
ENDCHAR
STARTCHAR Ecircumflex
ENCODING 202
SWIDTH 538 0
DWIDTH 7 0
BBX 6 10 0 0
BITMAP
30
48
00
fc
80
80
f0
80
80
fc
ENDCHAR
STARTCHAR Edieresis
ENCODING 203
SWIDTH 538 0
DWIDTH 7 0
BBX 6 10 0 0
BITMAP
48
48
00
fc
80
80
f0
80
80
fc
ENDCHAR
STARTCHAR Igrave
ENCODING 204
SWIDTH 538 0
DWIDTH 7 0
BBX 5 10 1 0
BITMAP
40
20
00
f8
20
20
20
20
20
f8
ENDCHAR
STARTCHAR Iacute
ENCODING 205
SWIDTH 538 0
DWIDTH 7 0
BBX 5 10 1 0
BITMAP
20
40
00
f8
20
20
20
20
20
f8
ENDCHAR
STARTCHAR Icircumflex
ENCODING 206
SWIDTH 538 0
DWIDTH 7 0
BBX 5 10 1 0
BITMAP
20
50
00
f8
20
20
20
20
20
f8
ENDCHAR
STARTCHAR Idieresis
ENCODING 207
SWIDTH 538 0
DWIDTH 7 0
BBX 5 10 1 0
BITMAP
88
88
00
f8
20
20
20
20
20
f8
ENDCHAR
STARTCHAR Eth
ENCODING 208
SWIDTH 538 0
DWIDTH 7 0
BBX 6 9 0 0
BITMAP
f8
44
44
44
e4
44
44
44
f8
ENDCHAR
STARTCHAR Ntilde
ENCODING 209
SWIDTH 538 0
DWIDTH 7 0
BBX 6 10 0 0
BITMAP
64
98
00
84
c4
a4
a4
94
8c
84
ENDCHAR
STARTCHAR Ograve
ENCODING 210
SWIDTH 538 0
DWIDTH 7 0
BBX 6 10 0 0
BITMAP
20
10
00
78
84
84
84
84
84
78
ENDCHAR
STARTCHAR Oacute
ENCODING 211
SWIDTH 538 0
DWIDTH 7 0
BBX 6 10 0 0
BITMAP
10
20
00
78
84
84
84
84
84
78
ENDCHAR
STARTCHAR Ocircumflex
ENCODING 212
SWIDTH 538 0
DWIDTH 7 0
BBX 6 10 0 0
BITMAP
30
48
00
78
84
84
84
84
84
78
ENDCHAR
STARTCHAR Otilde
ENCODING 213
SWIDTH 538 0
DWIDTH 7 0
BBX 6 10 0 0
BITMAP
64
98
00
78
84
84
84
84
84
78
ENDCHAR
STARTCHAR Odieresis
ENCODING 214
SWIDTH 538 0
DWIDTH 7 0
BBX 6 10 0 0
BITMAP
48
48
00
78
84
84
84
84
84
78
ENDCHAR
STARTCHAR multiply
ENCODING 215
SWIDTH 538 0
DWIDTH 7 0
BBX 6 6 0 1
BITMAP
84
48
30
30
48
84
ENDCHAR
STARTCHAR Oslash
ENCODING 216
SWIDTH 538 0
DWIDTH 7 0
BBX 6 11 0 -1
BITMAP
04
78
8c
94
94
a4
a4
a4
c4
78
80
ENDCHAR
STARTCHAR Ugrave
ENCODING 217
SWIDTH 538 0
DWIDTH 7 0
BBX 6 10 0 0
BITMAP
20
10
00
84
84
84
84
84
84
78
ENDCHAR
STARTCHAR Uacute
ENCODING 218
SWIDTH 538 0
DWIDTH 7 0
BBX 6 10 0 0
BITMAP
10
20
00
84
84
84
84
84
84
78
ENDCHAR
STARTCHAR Ucircumflex
ENCODING 219
SWIDTH 538 0
DWIDTH 7 0
BBX 6 10 0 0
BITMAP
30
48
00
84
84
84
84
84
84
78
ENDCHAR
STARTCHAR Udieresis
ENCODING 220
SWIDTH 538 0
DWIDTH 7 0
BBX 6 10 0 0
BITMAP
48
48
00
84
84
84
84
84
84
78
ENDCHAR
STARTCHAR Yacute
ENCODING 221
SWIDTH 538 0
DWIDTH 7 0
BBX 5 10 1 0
BITMAP
10
20
00
88
88
50
20
20
20
20
ENDCHAR
STARTCHAR Thorn
ENCODING 222
SWIDTH 538 0
DWIDTH 7 0
BBX 6 9 0 0
BITMAP
80
f8
84
84
84
f8
80
80
80
ENDCHAR
STARTCHAR germandbls
ENCODING 223
SWIDTH 538 0
DWIDTH 7 0
BBX 5 9 1 0
BITMAP
60
90
90
a0
a0
90
88
88
b0
ENDCHAR
STARTCHAR agrave
ENCODING 224
SWIDTH 538 0
DWIDTH 7 0
BBX 6 9 0 0
BITMAP
20
10
00
78
04
7c
84
8c
74
ENDCHAR
STARTCHAR aacute
ENCODING 225
SWIDTH 538 0
DWIDTH 7 0
BBX 6 9 0 0
BITMAP
10
20
00
78
04
7c
84
8c
74
ENDCHAR
STARTCHAR acircumflex
ENCODING 226
SWIDTH 538 0
DWIDTH 7 0
BBX 6 9 0 0
BITMAP
30
48
00
78
04
7c
84
8c
74
ENDCHAR
STARTCHAR atilde
ENCODING 227
SWIDTH 538 0
DWIDTH 7 0
BBX 6 9 0 0
BITMAP
64
98
00
78
04
7c
84
8c
74
ENDCHAR
STARTCHAR adieresis
ENCODING 228
SWIDTH 538 0
DWIDTH 7 0
BBX 6 9 0 0
BITMAP
48
48
00
78
04
7c
84
8c
74
ENDCHAR
STARTCHAR aring
ENCODING 229
SWIDTH 538 0
DWIDTH 7 0
BBX 6 10 0 0
BITMAP
30
48
30
00
78
04
7c
84
8c
74
ENDCHAR
STARTCHAR ae
ENCODING 230
SWIDTH 538 0
DWIDTH 7 0
BBX 6 6 0 0
BITMAP
68
14
7c
90
94
68
ENDCHAR
STARTCHAR ccedilla
ENCODING 231
SWIDTH 538 0
DWIDTH 7 0
BBX 6 8 0 -2
BITMAP
78
84
80
80
84
78
10
20
ENDCHAR
STARTCHAR egrave
ENCODING 232
SWIDTH 538 0
DWIDTH 7 0
BBX 6 9 0 0
BITMAP
20
10
00
78
84
fc
80
84
78
ENDCHAR
STARTCHAR eacute
ENCODING 233
SWIDTH 538 0
DWIDTH 7 0
BBX 6 9 0 0
BITMAP
10
20
00
78
84
fc
80
84
78
ENDCHAR
STARTCHAR ecircumflex
ENCODING 234
SWIDTH 538 0
DWIDTH 7 0
BBX 6 9 0 0
BITMAP
30
48
00
78
84
fc
80
84
78
ENDCHAR
STARTCHAR edieresis
ENCODING 235
SWIDTH 538 0
DWIDTH 7 0
BBX 6 9 0 0
BITMAP
48
48
00
78
84
fc
80
84
78
ENDCHAR
STARTCHAR igrave
ENCODING 236
SWIDTH 538 0
DWIDTH 7 0
BBX 5 9 1 0
BITMAP
40
20
00
60
20
20
20
20
f8
ENDCHAR
STARTCHAR iacute
ENCODING 237
SWIDTH 538 0
DWIDTH 7 0
BBX 5 9 1 0
BITMAP
20
40
00
60
20
20
20
20
f8
ENDCHAR
STARTCHAR icircumflex
ENCODING 238
SWIDTH 538 0
DWIDTH 7 0
BBX 5 9 1 0
BITMAP
60
90
00
60
20
20
20
20
f8
ENDCHAR
STARTCHAR idieresis
ENCODING 239
SWIDTH 538 0
DWIDTH 7 0
BBX 5 9 1 0
BITMAP
90
90
00
60
20
20
20
20
f8
ENDCHAR
STARTCHAR eth
ENCODING 240
SWIDTH 538 0
DWIDTH 7 0
BBX 6 10 0 0
BITMAP
48
30
50
08
78
84
84
84
84
78
ENDCHAR
STARTCHAR ntilde
ENCODING 241
SWIDTH 538 0
DWIDTH 7 0
BBX 6 9 0 0
BITMAP
64
98
00
b8
c4
84
84
84
84
ENDCHAR
STARTCHAR ograve
ENCODING 242
SWIDTH 538 0
DWIDTH 7 0
BBX 6 9 0 0
BITMAP
20
10
00
78
84
84
84
84
78
ENDCHAR
STARTCHAR oacute
ENCODING 243
SWIDTH 538 0
DWIDTH 7 0
BBX 6 9 0 0
BITMAP
10
20
00
78
84
84
84
84
78
ENDCHAR
STARTCHAR ocircumflex
ENCODING 244
SWIDTH 538 0
DWIDTH 7 0
BBX 6 9 0 0
BITMAP
30
48
00
78
84
84
84
84
78
ENDCHAR
STARTCHAR otilde
ENCODING 245
SWIDTH 538 0
DWIDTH 7 0
BBX 6 9 0 0
BITMAP
64
98
00
78
84
84
84
84
78
ENDCHAR
STARTCHAR odieresis
ENCODING 246
SWIDTH 538 0
DWIDTH 7 0
BBX 6 9 0 0
BITMAP
48
48
00
78
84
84
84
84
78
ENDCHAR
STARTCHAR divide
ENCODING 247
SWIDTH 538 0
DWIDTH 7 0
BBX 5 7 1 1
BITMAP
20
20
00
f8
00
20
20
ENDCHAR
STARTCHAR oslash
ENCODING 248
SWIDTH 538 0
DWIDTH 7 0
BBX 6 8 0 -1
BITMAP
04
78
8c
94
a4
c4
78
80
ENDCHAR
STARTCHAR ugrave
ENCODING 249
SWIDTH 538 0
DWIDTH 7 0
BBX 6 9 0 0
BITMAP
20
10
00
84
84
84
84
8c
74
ENDCHAR
STARTCHAR uacute
ENCODING 250
SWIDTH 538 0
DWIDTH 7 0
BBX 6 9 0 0
BITMAP
10
20
00
84
84
84
84
8c
74
ENDCHAR
STARTCHAR ucircumflex
ENCODING 251
SWIDTH 538 0
DWIDTH 7 0
BBX 6 9 0 0
BITMAP
30
48
00
84
84
84
84
8c
74
ENDCHAR
STARTCHAR udieresis
ENCODING 252
SWIDTH 538 0
DWIDTH 7 0
BBX 6 9 0 0
BITMAP
48
48
00
84
84
84
84
8c
74
ENDCHAR
STARTCHAR yacute
ENCODING 253
SWIDTH 538 0
DWIDTH 7 0
BBX 6 11 0 -2
BITMAP
10
20
00
84
84
84
8c
74
04
84
78
ENDCHAR
STARTCHAR thorn
ENCODING 254
SWIDTH 538 0
DWIDTH 7 0
BBX 6 10 0 -2
BITMAP
80
80
b8
c4
84
84
c4
b8
80
80
ENDCHAR
STARTCHAR ydieresis
ENCODING 255
SWIDTH 538 0
DWIDTH 7 0
BBX 6 11 0 -2
BITMAP
48
48
00
84
84
84
8c
74
04
84
78
ENDCHAR
ENDFONT
